# xmcd CD database file
#
# Track frame offsets:
#	150
#	18110
#	32652
#	50815
#	73885
#	97870
#	111810
#	133260
#	150390
#	168142
#	188460
#	204855
#
# Disc length: 3186 seconds
#
# Revision: 2
# Processed by: cddbd v1.4PL0 Copyright (c) Steve Scherf et al.
# Submitted via: CDex 1.50
#
DISCID=910c700c
DTITLE=Cross Canadian Ragweed - Highway 377
DYEAR=2001
DGENRE=Country
TTITLE0=Look At Me
TTITLE1=Forty-Two Miles
TTITLE2=One Of These Days
TTITLE3=Back Around
TTITLE4=Bang My Head
TTITLE5=Jimmy And Annie
TTITLE6=Highway 377
TTITLE7=Time To Move On
TTITLE8=Long Way Home
TTITLE9=Run To Me
TTITLE10=Alabama
TTITLE11=Johnny's Song
EXTD=YEAR: 2001
EXTT0=
EXTT1=
EXTT2=
EXTT3=
EXTT4=
EXTT5=
EXTT6=
EXTT7=
EXTT8=
EXTT9=
EXTT10=
EXTT11=
PLAYORDER=
